<?xml version="1.0" encoding="utf-8"?>
<!-- Generator: Adobe Illustrator 21.0.0, SVG Export Plug-In . SVG Version: 6.00 Build 0)  -->
<svg version="1.1" id="Calque_1" xmlns="http://www.w3.org/2000/svg" xmlns:xlink="http://www.w3.org/1999/xlink" x="0px" y="0px"
	 width="97.4px" height="97.4px" viewBox="0 0 97.4 97.4" style="enable-background:new 0 0 97.4 97.4;" xml:space="preserve">
<path d="M94,57.2l-3.2-1.7c0.3-2.2,0.5-4.5,0.5-6.7c0-3-0.3-5.9-0.9-8.7l3.1-1.8c4.9-2.9,4.3-5-1.4-4.8l-3.6,0.1
	c-1.9-4.9-4.6-9.4-8-13.2l1.8-3.2c2.8-4.9,1.2-6.5-3.6-3.5l-3.1,1.9c-4-3.2-8.6-5.8-13.5-7.4l0-3.6c0-5.7-2.2-6.2-4.9-1.2l-1.7,3.2
	c-2.2-0.3-4.5-0.5-6.7-0.5c-3,0-5.9,0.3-8.7,0.9l-1.8-3.1c-2.9-4.9-5-4.3-4.8,1.4l0.1,3.6c-4.9,1.9-9.4,4.6-13.2,8l-3.2-1.8
	c-4.9-2.8-6.5-1.2-3.5,3.6l1.9,3.1c-3.2,4-5.8,8.6-7.4,13.5l-3.6,0c-5.7,0-6.2,2.2-1.2,4.9L6.7,42c-0.3,2.2-0.5,4.5-0.5,6.7
	c0,3,0.3,5.9,0.9,8.7l-3.1,1.8c-4.9,2.9-4.3,5,1.4,4.8l3.6-0.1c1.9,4.9,4.6,9.4,8,13.2l-1.8,3.2c-2.8,4.9-1.2,6.5,3.6,3.5l3.1-1.9
	c4,3.2,8.6,5.8,13.5,7.4l0,3.6c0,5.7,2.2,6.2,4.9,1.2l1.7-3.2c2.2,0.3,4.5,0.5,6.7,0.5c3,0,5.9-0.3,8.7-0.9l1.8,3.1
	c2.9,4.9,5,4.3,4.8-1.4l-0.1-3.6c4.9-1.9,9.4-4.6,13.2-8l3.2,1.8c4.9,2.8,6.5,1.2,3.5-3.6l-1.9-3.1c3.2-4,5.8-8.6,7.4-13.5l3.6,0
	C98.5,62,99,59.8,94,57.2z"/>
</svg>
